<svg xmlns="http://www.w3.org/2000/svg" width="21.52" height="16.14" viewBox="0 0 21.52 16.14"><defs><style>.a{fill:#fff;}</style></defs><path class="a" d="M19.5,59.882H2.018A2.02,2.02,0,0,0,0,61.9V74a2.02,2.02,0,0,0,2.018,2.018H19.5A2.02,2.02,0,0,0,21.52,74V61.9A2.02,2.02,0,0,0,19.5,59.882Zm0,1.345a.669.669,0,0,1,.258.052l-9,7.8-9-7.8a.669.669,0,0,1,.258-.052Zm0,13.45H2.018A.673.673,0,0,1,1.345,74V62.7l8.974,7.778a.673.673,0,0,0,.881,0L20.175,62.7V74A.673.673,0,0,1,19.5,74.677Z" transform="translate(0 -59.882)"/></svg>