<svg xmlns="http://www.w3.org/2000/svg" width="14.289" height="25.175" viewBox="0 0 14.289 25.175"><defs><style>.a{fill:#fff;}</style></defs><path class="a" d="M9.326,25.174H5.294a1.222,1.222,0,0,1-1.221-1.221V14.86H1.721A1.223,1.223,0,0,1,.5,13.639v-3.9A1.222,1.222,0,0,1,1.721,8.521H4.073V6.57A6.644,6.644,0,0,1,5.83,1.81,6.327,6.327,0,0,1,10.5,0L13.57,0a1.223,1.223,0,0,1,1.219,1.221V4.843a1.222,1.222,0,0,1-1.221,1.221H11.5c-.631,0-.792.127-.826.165-.057.064-.124.246-.124.748V8.521h2.865a1.241,1.241,0,0,1,.6.153,1.225,1.225,0,0,1,.628,1.068l0,3.9a1.222,1.222,0,0,1-1.221,1.221H10.547v9.093a1.223,1.223,0,0,1-1.221,1.221ZM5.549,23.7H9.071V14.2a.816.816,0,0,1,.815-.815h3.281V10H9.886a.816.816,0,0,1-.815-.815v-2.2a2.513,2.513,0,0,1,.494-1.725A2.5,2.5,0,0,1,11.5,4.59h1.815V1.48l-2.819,0c-3.05,0-4.945,1.952-4.945,5.094V9.182A.816.816,0,0,1,4.734,10H1.976v3.387H4.734a.816.816,0,0,1,.815.815ZM13.567,1.48h0Zm0,0" transform="translate(-0.5 0)"/></svg>