<svg xmlns="http://www.w3.org/2000/svg" width="19.297" height="19.3" viewBox="0 0 19.297 19.3"><defs><style>.a{fill:#fff;}</style></defs><path class="a" d="M19.7,5.674a7.052,7.052,0,0,0-.449-2.341A4.944,4.944,0,0,0,16.423.509,7.071,7.071,0,0,0,14.082.06C13.049.011,12.721,0,10.1,0S7.152.011,6.123.057A7.054,7.054,0,0,0,3.782.505,4.709,4.709,0,0,0,2.07,1.621,4.752,4.752,0,0,0,.958,3.329,7.071,7.071,0,0,0,.509,5.671C.46,6.7.449,7.032.449,9.652S.46,12.6.505,13.63a7.052,7.052,0,0,0,.449,2.341A4.943,4.943,0,0,0,3.778,18.8a7.071,7.071,0,0,0,2.341.449c1.029.045,1.357.057,3.978.057s2.948-.011,3.978-.057a7.051,7.051,0,0,0,2.341-.449,4.937,4.937,0,0,0,2.824-2.824,7.076,7.076,0,0,0,.449-2.341c.045-1.029.057-1.357.057-3.978s0-2.948-.049-3.978Zm-1.738,7.88a5.29,5.29,0,0,1-.332,1.791,3.2,3.2,0,0,1-1.832,1.832A5.309,5.309,0,0,1,14,17.509c-1.018.045-1.323.057-3.9.057s-2.884-.011-3.9-.057a5.287,5.287,0,0,1-1.791-.332,2.97,2.97,0,0,1-1.108-.72,3,3,0,0,1-.72-1.108,5.31,5.31,0,0,1-.332-1.791C2.209,12.54,2.2,12.235,2.2,9.66s.011-2.884.057-3.9A5.287,5.287,0,0,1,2.586,3.97,2.934,2.934,0,0,1,3.31,2.862a3,3,0,0,1,1.108-.72A5.312,5.312,0,0,1,6.21,1.81c1.018-.045,1.323-.057,3.9-.057s2.884.011,3.9.057a5.29,5.29,0,0,1,1.791.332,2.968,2.968,0,0,1,1.108.72,3,3,0,0,1,.72,1.109,5.312,5.312,0,0,1,.332,1.791c.045,1.018.057,1.323.057,3.9s-.011,2.877-.057,3.895Zm0,0" transform="translate(-0.449 0)"/><path class="a" d="M129.907,124.5a4.958,4.958,0,1,0,4.958,4.958A4.959,4.959,0,0,0,129.907,124.5Zm0,8.174a3.216,3.216,0,1,1,3.216-3.216A3.217,3.217,0,0,1,129.907,132.674Zm0,0" transform="translate(-120.255 -119.806)"/><path class="a" d="M364.765,89.759a1.158,1.158,0,1,1-1.158-1.157A1.158,1.158,0,0,1,364.765,89.759Zm0,0" transform="translate(-348.801 -85.261)"/></svg>