<svg xmlns="http://www.w3.org/2000/svg" width="106.9" height="60.136" viewBox="0 0 106.9 60.136"><defs><style>.a{fill:#fff;}.b{fill:none;}</style></defs><g transform="translate(12.963 14.857)"><path class="a" d="M346.187,370.676a15.169,15.169,0,0,1-6.261,5.6,14.878,14.878,0,0,1-8.278,1.414,15.043,15.043,0,0,1-7.764-3.213.255.255,0,0,0-.033.186q0,1.1,0,2.2c0,.274,0,.547,0,.821,0,.06,0,.12-.008.179a.3.3,0,0,1-.069.02h-20.5a.422.422,0,0,1-.069-.01.155.155,0,0,1-.021-.024.042.042,0,0,1-.006-.019l-.005-30.17c0-.041,0-.082,0-.123a.236.236,0,0,1,.02-.05c.032,0,.071-.012.109-.014s.1,0,.144,0H310.6a.854.854,0,0,1,.027.125c0,.075,0,.151,0,.226v23.651a1.236,1.236,0,0,0,.125.026,1.167,1.167,0,0,0,.123,0h9.913a.47.47,0,0,0,.226-.023.631.631,0,0,0-.117-.2,15.2,15.2,0,0,1-1.732-3.274,15,15,0,0,1-.838-3.25,15.181,15.181,0,0,1,10.825-16.7,14.859,14.859,0,0,1,2.328-.475,14.71,14.71,0,0,1,2.457-.1,15.035,15.035,0,0,1,8.037,2.695c.174.121.347.244.514.375a1.056,1.056,0,0,1,.346,1.215,1.076,1.076,0,0,1-1.047.712,1.058,1.058,0,0,1-.56-.177c-.051-.033-.1-.072-.149-.109A12.99,12.99,0,0,0,320.4,361.4a12.532,12.532,0,0,0-.02,2.234,13.085,13.085,0,0,0,9.345,11.474,12.548,12.548,0,0,0,2.23.44,12.934,12.934,0,0,0,7.334-1.368,13.061,13.061,0,0,0,6.531-7.913c.013-.046.03-.09.049-.147.066.035.074.1.094.149a9.25,9.25,0,0,0,.818,1.583,9.686,9.686,0,0,0,5.822,4.22,9.219,9.219,0,0,0,3.071.276,9.784,9.784,0,0,0,8.93-8.013,9.761,9.761,0,0,0-5.763-10.674,9.568,9.568,0,0,0-2.581-.707,9.664,9.664,0,0,0-2.334-.023,9.773,9.773,0,0,0-8.4,7.417,9.883,9.883,0,0,0-.27,2.194c0,.431-.014.862-.059,1.291a11.908,11.908,0,0,1-8.745,10.292,11.932,11.932,0,0,1-8.9-1.088,11.93,11.93,0,0,1-5.724-7.338,11.752,11.752,0,0,1-.384-3.74,11.922,11.922,0,0,1,10.636-11.183,11.588,11.588,0,0,1,2.294-.024,11.826,11.826,0,0,1,6.383,2.549,11.636,11.636,0,0,1,1.238,1.137c.042.044.086.086.133.133a.376.376,0,0,0,.13-.159,15.145,15.145,0,0,1,11.78-6.922,15.058,15.058,0,0,1,6.985,1.217,15.165,15.165,0,0,1,7.128,6.371c.034.059.072.115.109.172,0,0,.012,0,.018.006.038-.009.027-.042.028-.066,0-.062,0-.123,0-.185v-7.518a1.012,1.012,0,0,1,.128-.022c.068,0,.137,0,.205,0q6.075,0,12.15,0a13.025,13.025,0,0,1,1.923.121,9.269,9.269,0,0,1,7.76,6.612,10.211,10.211,0,0,1,.424,2.5,10.081,10.081,0,0,1-.651,4.185,9.139,9.139,0,0,1-5.337,5.335,9.957,9.957,0,0,1-2.479.623,11.877,11.877,0,0,1-1.474.085h-4.987a.847.847,0,0,0-.253.017c-.005.043-.012.082-.013.121,0,.068,0,.137,0,.205q0,5.162,0,10.324c0,.087,0,.175,0,.246a.22.22,0,0,1-.031.029.043.043,0,0,1-.02,0l-7.142,0h-.173a1,1,0,0,1-.024-.121c0-.061,0-.123,0-.185v-7.591c-.052-.025-.063.013-.079.039-.152.251-.3.509-.457.755a15.178,15.178,0,0,1-8.607,6.424,13.992,13.992,0,0,1-2.41.482,14.355,14.355,0,0,1-1.842.106,15.1,15.1,0,0,1-8.949-3c-.038-.028-.077-.057-.114-.087a1.08,1.08,0,0,1,.389-1.884,1.034,1.034,0,0,1,.865.128c.058.037.112.079.166.12a12.93,12.93,0,0,0,4.945,2.255,12.773,12.773,0,0,0,3.363.289,13.03,13.03,0,0,0,12.022-9.775,13.149,13.149,0,0,0,.37-4.131,12.712,12.712,0,0,0-2.436-6.675,12.939,12.939,0,0,0-6.864-4.878,12.932,12.932,0,0,0-4.44-.507,13.042,13.042,0,0,0-11.547,8.833c-.073.213-.138.429-.207.644-.076-.026-.076-.1-.1-.151a9.219,9.219,0,0,0-.809-1.565,9.7,9.7,0,0,0-6.134-4.307,9.243,9.243,0,0,0-2.691-.21A9.769,9.769,0,0,0,324,359.8a9.593,9.593,0,0,0-.41,2.523,9.5,9.5,0,0,0,2,6.2,9.608,9.608,0,0,0,5.709,3.635,9.184,9.184,0,0,0,2.713.189,9.785,9.785,0,0,0,8.92-7.976,9.842,9.842,0,0,0,.159-1.8,11.779,11.779,0,0,1,1.851-6.332,11.829,11.829,0,0,1,6.916-5.113,10.966,10.966,0,0,1,1.892-.353,11.834,11.834,0,0,1,8.479,2.381,11.748,11.748,0,0,1,4.288,6.413,11.542,11.542,0,0,1,.384,3.6,11.18,11.18,0,0,1-1.3,4.728,12.432,12.432,0,0,1-6.062,5.688,10.947,10.947,0,0,1-2.907.837,11.5,11.5,0,0,1-2.17.1,11.869,11.869,0,0,1-8.1-3.7c-.042-.044-.085-.089-.129-.132C346.224,370.687,346.21,370.685,346.187,370.676Zm27.623,5.792a.844.844,0,0,0,.024-.29q0-5.151,0-10.3c0-.075,0-.15,0-.226a1.252,1.252,0,0,1,.018-.124c.093,0,.174-.005.255-.005h7.018a7.961,7.961,0,0,0,1.691-.172,7.429,7.429,0,0,0,5.006-3.6,9,9,0,0,0,1.21-4.381,9.638,9.638,0,0,0-.114-1.819,8.28,8.28,0,0,0-.876-2.677,7.255,7.255,0,0,0-5.606-3.887,9.5,9.5,0,0,0-1.411-.088H370.478c-.055,0-.109,0-.164,0-.039,0-.078.011-.128.018,0,.11-.005.212-.005.313q0,13.462,0,26.923c0,.062,0,.123,0,.185a1.089,1.089,0,0,0,.02.121,1.288,1.288,0,0,0,.128.013Zm-68.745-27.556c-.024.214-.021,27.372,0,27.542a1.191,1.191,0,0,0,.28.013h16.316c.062,0,.123,0,.185,0a.82.82,0,0,0,.109-.021.223.223,0,0,0,.016-.05q0-1.642,0-3.283c0-.048,0-.1-.006-.143a.045.045,0,0,0-.005-.02.23.23,0,0,0-.025-.028c-.076,0-.164-.005-.251-.005h-12.6c-.068,0-.137,0-.205,0-.039,0-.078-.008-.13-.013,0-.106,0-.2,0-.295V349.252c0-.075,0-.151,0-.226a1.136,1.136,0,0,0-.015-.113C308.555,348.885,305.258,348.884,305.065,348.912Z" transform="translate(-303.17 -347.461)"/><path class="a" d="M1955.96,470.053v-9.635a.9.9,0,0,1,.116-.027c.048,0,.1,0,.144,0q3.181,0,6.362,0a5,5,0,0,1,1.34.161,4.11,4.11,0,0,1,2.634,2.126,5.025,5.025,0,0,1,.547,1.795,6.225,6.225,0,0,1-.176,2.419,4.406,4.406,0,0,1-1.1,1.945,4.026,4.026,0,0,1-1.983,1.1,5.152,5.152,0,0,1-1.2.133h-6.485C1956.1,470.062,1956.042,470.057,1955.96,470.053Zm1.876-1.409c.085,0,.159.007.232.007h2.052c.773,0,1.545.006,2.318,0a2.7,2.7,0,0,0,2.16-1.038,3.37,3.37,0,0,0,.443-.712,4.254,4.254,0,0,0,.372-2.158,3.333,3.333,0,0,0-.458-1.475,2.68,2.68,0,0,0-1.7-1.264,3.852,3.852,0,0,0-.956-.1q-1.549,0-3.1,0c-.39,0-.779,0-1.169,0a.318.318,0,0,0-.2.028C1957.817,462.089,1957.813,468.414,1957.836,468.644Z" transform="translate(-1885.289 -455.559)"/><path class="a" d="M1957.24,702.428V702.2a.444.444,0,0,1,.086-.019q6.239,0,12.478,0c.01,0,.021.015.038.028a.687.687,0,0,1-.176.19.17.17,0,0,1-.095.03c-.054.005-.11,0-.164,0h-11.9C1957.422,702.434,1957.341,702.431,1957.24,702.428Z" transform="translate(-1886.514 -687.013)"/><path class="a" d="M1969.682,441.45a1.176,1.176,0,0,1,.2.211c-.009.017-.01.024-.015.028a.033.033,0,0,1-.019.006l-12.436,0a.579.579,0,0,1-.082-.005.207.207,0,0,1-.047-.023v-.2a1.059,1.059,0,0,1,.118-.018c.062,0,.123,0,.185,0h12.1Z" transform="translate(-1886.553 -437.43)"/><path class="a" d="M1968.454,725.852c-.107.059-.213.12-.322.176a.319.319,0,0,1-.117.028c-.054,0-.109,0-.164,0h-10.79a.369.369,0,0,1-.014-.235c.042-.005.08-.012.12-.015s.1,0,.144,0h11.133C1968.446,725.822,1968.45,725.837,1968.454,725.852Z" transform="translate(-1886.318 -709.629)"/><path class="a" d="M1968.646,417.9h-11.3a.311.311,0,0,1-.067-.018v-.207a.3.3,0,0,1,.073-.02c.068,0,.137,0,.205,0h10.548a.549.549,0,0,1,.53.2A.225.225,0,0,1,1968.646,417.9Z" transform="translate(-1886.553 -414.653)"/><path class="a" d="M1966.584,749.656a.363.363,0,0,1-.186.08c-.255.047-.51.1-.766.137a2.182,2.182,0,0,1-.346.028q-3.9,0-7.795,0a.631.631,0,0,1-.23-.019v-.211a1.1,1.1,0,0,1,.119-.018c.068,0,.137,0,.205,0h8.759Z" transform="translate(-1886.534 -732.456)"/><path class="a" d="M1966.347,394.022c-.015.012-.025.027-.034.027l-8.967,0a.5.5,0,0,1-.086-.017v-.213a1.084,1.084,0,0,1,.119-.021c.062,0,.123,0,.185,0q3.437,0,6.874,0a8.89,8.89,0,0,1,1.144.091c.237.03.473.072.709.109A.3.3,0,0,1,1966.347,394.022Z" transform="translate(-1886.534 -391.818)"/><path class="a" d="M2179.17,465.033c.059-.056.124-.035.183-.035.4,0,.807,0,1.211,0h2.093a.908.908,0,0,0,.123,0c.176-.024.254.085.319.22-.061.052-.125.033-.184.033-.492,0-.985,0-1.478,0-.588,0-1.177-.009-1.765,0A.668.668,0,0,1,2179.17,465.033Z" transform="translate(-2098.955 -459.967)"/><path class="a" d="M2176.262,678.514l-.174.219c-.2.027-3.81.026-3.989,0,.035-.069.106-.086.156-.124a.536.536,0,0,1,.342-.106c1.148,0,2.3,0,3.444,0C2176.1,678.5,2176.161,678.509,2176.262,678.514Z" transform="translate(-2092.187 -664.345)"/><path class="a" d="M2200.52,654.937l.164-.207c.159-.022,3.041-.029,3.307-.008-.015.1-.015.1-.107.226C2203.645,654.97,2200.7,654.964,2200.52,654.937Z" transform="translate(-2119.392 -641.572)"/><path class="a" d="M2206.41,488.736a.472.472,0,0,1,.093.232c-.168.024-3.076.025-3.267,0a.651.651,0,0,1-.116-.193c.009-.02.01-.028.014-.032a.033.033,0,0,1,.02,0l3.1,0Z" transform="translate(-2121.881 -482.695)"/><path class="a" d="M2217.518,512.792a.626.626,0,0,1-.128-.2.16.16,0,0,1,.018-.032.04.04,0,0,1,.02-.006l2.931-.006c.041,0,.081,0,.125.007a.468.468,0,0,1,.085.235Z" transform="translate(-2135.541 -505.491)"/><path class="a" d="M2216.41,631.139a.425.425,0,0,1,.113-.218,6.074,6.074,0,0,1,.611-.011c.2,0,.41,0,.614,0h.594c.2,0,.41,0,.614,0a4.4,4.4,0,0,1,.6.014c.029.094-.035.148-.05.218a.593.593,0,0,1-.09.016h-2.949A.263.263,0,0,1,2216.41,631.139Z" transform="translate(-2134.603 -618.788)"/><path class="a" d="M2225.02,607.6l.044-.215a1.4,1.4,0,0,1,.146-.016h2.724c.04,0,.08,0,.13.007a.349.349,0,0,1-.07.227C2227.822,607.632,2225.222,607.632,2225.02,607.6Z" transform="translate(-2142.845 -596.26)"/><path class="a" d="M2228.425,536.215c0,.058.01.091.01.123s-.007.066-.012.1a.406.406,0,0,1-.083.018h-2.817a.443.443,0,0,1-.1-.213c.056-.053.12-.036.177-.036h2.6Z" transform="translate(-2143.228 -528.138)"/><path class="a" d="M2231.839,583.691c-.015.072-.029.144-.043.213-.2.025-2.794.022-2.956,0a1.01,1.01,0,0,1,.009-.118.634.634,0,0,1,.032-.092C2229.056,583.665,2231.66,583.665,2231.839,583.691Z" transform="translate(-2146.501 -573.571)"/><path class="a" d="M2232.811,559.894v.221a1.351,1.351,0,0,1-.142.016h-2.622c-.046,0-.093-.008-.147-.012V559.9a.818.818,0,0,1,.121-.019h2.683C2232.731,559.884,2232.758,559.889,2232.811,559.894Z" transform="translate(-2147.516 -550.801)"/><path class="a" d="M363.87,1005.9a.615.615,0,0,1,.175-.189.177.177,0,0,1,.1-.023c.061,0,.123,0,.185,0H379.28c.088,0,.176,0,.261,0a.3.3,0,0,1,.021.231.863.863,0,0,1-.108.015q-7.773,0-15.547-.006C363.9,1005.93,363.886,1005.915,363.87,1005.9Z" transform="translate(-361.275 -977.541)"/><path class="a" d="M388.02,982.225c.207-.244.207-.245.473-.245h13.93c.081,0,.162,0,.257.005,0,.078.009.143.013.219a1.059,1.059,0,0,1-.123.025c-.054,0-.109,0-.164,0H388.291C388.212,982.23,388.132,982.227,388.02,982.225Z" transform="translate(-384.392 -954.849)"/><path class="a" d="M412.43,958.394a.484.484,0,0,1,.133-.136.627.627,0,0,1,.1-.075.184.184,0,0,1,.077-.021c.047,0,.1,0,.144,0H425.81c.074,0,.148,0,.235.007.005.076.009.142.015.217a1,1,0,0,1-.122.026c-.054,0-.109,0-.164,0H412.681A.806.806,0,0,1,412.43,958.394Z" transform="translate(-407.758 -932.047)"/></g><rect class="b" width="106.9" height="60.136"/></svg>