<svg xmlns="http://www.w3.org/2000/svg" width="209.704" height="117.967" viewBox="0 0 209.704 117.967"><defs><style>.a{fill:none;}</style></defs><g transform="translate(25.43 29.145)"><path d="M387.556,393a29.758,29.758,0,0,1-12.282,10.988,29.186,29.186,0,0,1-16.238,2.774,29.509,29.509,0,0,1-15.23-6.3.5.5,0,0,0-.064.364q0,2.154,0,4.308c0,.537,0,1.074,0,1.611,0,.117-.009.235-.015.351a.594.594,0,0,1-.135.039q-20.111,0-40.222,0a.823.823,0,0,1-.136-.02.3.3,0,0,1-.041-.047.082.082,0,0,1-.011-.037l-.01-59.184c0-.081,0-.161.009-.241a.461.461,0,0,1,.039-.1c.062-.008.138-.023.215-.028.094-.005.188,0,.282,0h14.023a1.668,1.668,0,0,1,.052.246c.008.148,0,.3,0,.443v46.4a2.437,2.437,0,0,0,.245.051,2.309,2.309,0,0,0,.242,0q9.723,0,19.446,0a.923.923,0,0,0,.443-.044,1.237,1.237,0,0,0-.23-.383,29.825,29.825,0,0,1-3.4-6.422,29.423,29.423,0,0,1-1.644-6.375,29.781,29.781,0,0,1,21.235-32.769,29.882,29.882,0,0,1,9.387-1.137,29.494,29.494,0,0,1,15.766,5.286c.342.237.681.479,1.008.735a2.071,2.071,0,0,1,.679,2.384,2.111,2.111,0,0,1-2.054,1.4,2.075,2.075,0,0,1-1.1-.347c-.1-.065-.2-.141-.293-.213a25.482,25.482,0,0,0-40.565,18.084,24.581,24.581,0,0,0-.039,4.382A25.669,25.669,0,0,0,355.255,401.7a24.617,24.617,0,0,0,4.374.862,25.373,25.373,0,0,0,14.386-2.684,25.622,25.622,0,0,0,12.813-15.523c.026-.09.059-.177.1-.288.13.07.145.194.185.293a18.14,18.14,0,0,0,1.6,3.106,19,19,0,0,0,11.422,8.278,18.082,18.082,0,0,0,6.025.541,19.192,19.192,0,0,0,17.518-15.72,19.148,19.148,0,0,0-11.306-20.94,19.123,19.123,0,0,0-9.642-1.432,19.172,19.172,0,0,0-16.485,14.55,19.389,19.389,0,0,0-.529,4.3c-.008.846-.027,1.691-.115,2.532a23.361,23.361,0,0,1-17.154,20.19A23.407,23.407,0,0,1,351,397.639a23.4,23.4,0,0,1-11.23-14.394,23.054,23.054,0,0,1-.752-7.336,23.387,23.387,0,0,1,20.864-21.938,22.738,22.738,0,0,1,4.5-.047,23.2,23.2,0,0,1,12.521,5,22.82,22.82,0,0,1,2.429,2.231c.082.086.169.169.261.262a.737.737,0,0,0,.255-.311,29.71,29.71,0,0,1,23.11-13.579,29.54,29.54,0,0,1,13.7,2.388,29.75,29.75,0,0,1,13.983,12.5c.067.115.141.226.213.338.005.008.023.008.036.013.074-.018.053-.083.055-.13.005-.121,0-.242,0-.362V347.524a1.98,1.98,0,0,1,.251-.044c.134-.007.268,0,.4,0q11.918,0,23.835,0a25.544,25.544,0,0,1,3.772.238,18.183,18.183,0,0,1,15.223,12.97,20.029,20.029,0,0,1,.831,4.906,19.775,19.775,0,0,1-1.277,8.21,17.928,17.928,0,0,1-10.47,10.466,19.534,19.534,0,0,1-4.862,1.221,23.306,23.306,0,0,1-2.891.167h-9.784a1.662,1.662,0,0,0-.5.033c-.01.085-.023.161-.026.237,0,.134,0,.268,0,.4q0,10.126,0,20.252c0,.171-.006.343-.008.483a.43.43,0,0,1-.06.056.084.084,0,0,1-.039.008l-14.01.009h-.34a1.978,1.978,0,0,1-.046-.237c-.008-.12,0-.242,0-.362V391.647c-.1-.049-.124.025-.155.077-.3.493-.58,1-.9,1.48a29.774,29.774,0,0,1-16.884,12.6,27.451,27.451,0,0,1-4.727.945,28.165,28.165,0,0,1-3.614.208,29.612,29.612,0,0,1-17.556-5.882c-.075-.055-.151-.112-.224-.171a2.119,2.119,0,0,1,.763-3.7,2.028,2.028,0,0,1,1.7.252c.113.072.219.155.326.235a25.364,25.364,0,0,0,9.7,4.424,25.056,25.056,0,0,0,6.6.567,25.562,25.562,0,0,0,23.583-19.176,25.793,25.793,0,0,0,.726-8.1,24.936,24.936,0,0,0-4.778-13.094,25.382,25.382,0,0,0-13.465-9.57,25.368,25.368,0,0,0-8.711-.994,25.585,25.585,0,0,0-22.652,17.327c-.143.418-.27.841-.406,1.264-.149-.051-.148-.193-.191-.3a18.084,18.084,0,0,0-1.586-3.07,19.036,19.036,0,0,0-12.032-8.448,18.131,18.131,0,0,0-5.279-.413,19.164,19.164,0,0,0-17.143,13.558,18.821,18.821,0,0,0-.8,4.949,18.631,18.631,0,0,0,3.914,12.164,18.848,18.848,0,0,0,11.2,7.131,18.017,18.017,0,0,0,5.321.371,19.194,19.194,0,0,0,17.5-15.647,19.307,19.307,0,0,0,.311-3.524,23.106,23.106,0,0,1,3.63-12.422,23.2,23.2,0,0,1,13.567-10.031,21.512,21.512,0,0,1,3.712-.692,23.214,23.214,0,0,1,16.634,4.67,23.045,23.045,0,0,1,8.411,12.581,22.642,22.642,0,0,1,.752,7.055,21.931,21.931,0,0,1-2.552,9.275,24.387,24.387,0,0,1-11.892,11.158,21.473,21.473,0,0,1-5.7,1.642,22.563,22.563,0,0,1-4.257.2A23.284,23.284,0,0,1,387.9,393.3c-.083-.087-.167-.174-.252-.259C387.629,393.023,387.6,393.019,387.556,393Zm54.188,11.361a1.654,1.654,0,0,0,.047-.57q0-10.1,0-20.208c0-.148,0-.3,0-.443a2.457,2.457,0,0,1,.034-.244c.183,0,.342-.01.5-.01H456.1a15.614,15.614,0,0,0,3.317-.337,14.574,14.574,0,0,0,9.821-7.072,17.653,17.653,0,0,0,2.375-8.594,18.9,18.9,0,0,0-.223-3.569,16.243,16.243,0,0,0-1.719-5.251,14.232,14.232,0,0,0-11-7.625,18.639,18.639,0,0,0-2.769-.172H435.208c-.107,0-.215,0-.322,0-.076,0-.153.022-.252.036,0,.216-.01.415-.01.614q0,26.408,0,52.815c0,.121,0,.242,0,.362a2.136,2.136,0,0,0,.039.238,2.522,2.522,0,0,0,.252.025C437.186,404.363,439.452,404.363,441.743,404.363ZM306.887,350.307c-.046.42-.04,53.7.007,54.03a2.334,2.334,0,0,0,.549.026h32.007c.121,0,.242,0,.362,0a1.6,1.6,0,0,0,.213-.04.437.437,0,0,0,.032-.1q0-3.221.007-6.441c0-.094-.008-.187-.013-.281a.088.088,0,0,0-.01-.039.463.463,0,0,0-.049-.055c-.149,0-.321-.01-.492-.01H314.78c-.134,0-.268,0-.4,0-.076,0-.153-.015-.254-.026,0-.207-.008-.393-.008-.578V350.974c0-.148,0-.3,0-.443a2.237,2.237,0,0,0-.029-.222C313.733,350.255,307.266,350.254,306.887,350.307Z" transform="translate(-303.17 -347.461)"/><path d="M1955.96,479.347v-18.9a1.75,1.75,0,0,1,.228-.053c.093-.009.188,0,.282,0q6.241,0,12.48,0a9.81,9.81,0,0,1,2.629.315,8.062,8.062,0,0,1,5.167,4.171,9.859,9.859,0,0,1,1.073,3.52,12.212,12.212,0,0,1-.346,4.746,8.643,8.643,0,0,1-2.149,3.816,7.9,7.9,0,0,1-3.891,2.15,10.105,10.105,0,0,1-2.354.26h-12.722C1956.238,479.366,1956.12,479.355,1955.96,479.347Zm3.681-2.764c.166.006.311.014.456.014h4.025c1.516,0,3.031.011,4.547,0a5.291,5.291,0,0,0,4.237-2.036,6.61,6.61,0,0,0,.868-1.4,8.346,8.346,0,0,0,.729-4.233,6.54,6.54,0,0,0-.9-2.894,5.256,5.256,0,0,0-3.326-2.48,7.554,7.554,0,0,0-1.876-.194q-3.038,0-6.076,0c-.765,0-1.529,0-2.294,0a.625.625,0,0,0-.389.055C1959.6,463.725,1959.6,476.133,1959.641,476.584Z" transform="translate(-1817.326 -450.916)"/><path d="M1957.24,702.667v-.45a.871.871,0,0,1,.168-.038q12.238,0,24.478.007c.02,0,.04.029.075.055a1.352,1.352,0,0,1-.346.372.334.334,0,0,1-.186.06c-.107.01-.215,0-.322,0h-23.351C1957.6,702.678,1957.438,702.672,1957.24,702.667Z" transform="translate(-1818.498 -672.427)"/><path d="M1981.608,441.45a2.3,2.3,0,0,1,.386.414c-.017.033-.019.048-.029.055a.066.066,0,0,1-.038.011l-24.4.006a1.136,1.136,0,0,1-.16-.01.4.4,0,0,1-.091-.045v-.4a2.071,2.071,0,0,1,.232-.034c.121-.006.242,0,.362,0h23.734Z" transform="translate(-1818.535 -433.565)"/><path d="M1979.436,725.9c-.21.116-.418.236-.631.345a.628.628,0,0,1-.23.055c-.107.009-.215,0-.321,0h-21.168a.725.725,0,0,1-.028-.461c.081-.01.158-.024.235-.029.094-.005.188,0,.282,0h21.839C1979.421,725.837,1979.428,725.867,1979.436,725.9Z" transform="translate(-1818.31 -694.071)"/><path d="M1979.576,418.139h-22.164a.609.609,0,0,1-.132-.034V417.7a.578.578,0,0,1,.143-.039c.134-.007.268,0,.4,0h20.691a1.077,1.077,0,0,1,1.04.4A.426.426,0,0,1,1979.576,418.139Z" transform="translate(-1818.535 -411.767)"/><path d="M1975.551,749.659a.712.712,0,0,1-.366.157c-.5.092-1,.188-1.5.268a4.294,4.294,0,0,1-.679.055q-7.646.005-15.291,0a1.236,1.236,0,0,1-.451-.037v-.414a2.176,2.176,0,0,1,.233-.034c.134-.006.268,0,.4,0h17.183C1975.235,749.654,1975.393,749.658,1975.551,749.659Z" transform="translate(-1818.516 -715.917)"/><path d="M1975.085,394.235c-.03.024-.049.053-.066.053q-8.795.008-17.59.009a.994.994,0,0,1-.169-.033v-.418a2.1,2.1,0,0,1,.234-.04c.121-.007.242,0,.362,0q6.743,0,13.485,0a17.441,17.441,0,0,1,2.244.178c.465.059.928.141,1.392.214A.594.594,0,0,1,1975.085,394.235Z" transform="translate(-1818.517 -389.913)"/><path d="M2179.17,465.072c.116-.11.243-.069.358-.069.792,0,1.583,0,2.375,0h4.106a1.783,1.783,0,0,0,.242,0c.346-.047.5.167.626.431-.12.1-.246.065-.362.065-.966,0-1.932,0-2.9,0-1.154,0-2.309-.017-3.462.009A1.31,1.31,0,0,1,2179.17,465.072Z" transform="translate(-2021.813 -455.134)"/><path d="M2180.265,678.527l-.341.429c-.384.053-7.473.051-7.824,0,.069-.136.207-.169.307-.244a1.051,1.051,0,0,1,.672-.208c2.252.008,4.5.005,6.757.006C2179.951,678.507,2180.067,678.518,2180.265,678.527Z" transform="translate(-2015.336 -650.733)"/><path d="M2200.52,655.156l.322-.407c.311-.044,5.965-.056,6.488-.016-.029.2-.029.2-.21.444C2206.65,655.22,2200.867,655.208,2200.52,655.156Z" transform="translate(-2041.372 -628.938)"/><path d="M2209.573,488.736a.92.92,0,0,1,.183.455c-.329.046-6.033.049-6.408,0a1.273,1.273,0,0,1-.227-.379c.017-.039.019-.055.028-.062a.064.064,0,0,1,.039-.009l6.074-.009Z" transform="translate(-2043.754 -476.886)"/><path d="M2217.641,513.024a1.233,1.233,0,0,1-.25-.388c.023-.042.027-.055.036-.062a.075.075,0,0,1,.038-.013l5.749-.011c.08,0,.159.008.246.013a.911.911,0,0,1,.166.461Z" transform="translate(-2056.827 -498.702)"/><path d="M2216.41,631.362a.835.835,0,0,1,.222-.427,11.918,11.918,0,0,1,1.2-.021c.4-.005.8,0,1.205,0h1.165c.4,0,.8-.006,1.205,0a8.612,8.612,0,0,1,1.187.028c.057.185-.069.291-.1.428a1.158,1.158,0,0,1-.177.032q-2.893,0-5.785,0A.515.515,0,0,1,2216.41,631.362Z" transform="translate(-2055.929 -607.132)"/><path d="M2225.02,607.828c.032-.154.058-.282.086-.422a2.744,2.744,0,0,1,.287-.031q2.672,0,5.344,0c.079,0,.157.008.255.013a.681.681,0,0,1-.136.446C2230.517,607.881,2225.417,607.881,2225.02,607.828Z" transform="translate(-2063.817 -585.572)"/><path d="M2231.315,536.221c.009.113.02.178.019.242s-.014.129-.024.2a.8.8,0,0,1-.163.036c-1.848,0-3.695,0-5.527,0a.87.87,0,0,1-.2-.417c.11-.1.235-.071.348-.071q1.588,0,3.175,0h1.929C2231.007,536.213,2231.139,536.218,2231.315,536.221Z" transform="translate(-2064.184 -520.377)"/><path d="M2234.723,583.711c-.029.142-.058.282-.085.417-.39.049-5.481.043-5.8-.007a2,2,0,0,1,.018-.232,1.221,1.221,0,0,1,.063-.181C2229.264,583.659,2234.373,583.659,2234.723,583.711Z" transform="translate(-2067.316 -563.858)"/><path d="M2235.61,559.9v.435a2.641,2.641,0,0,1-.278.032q-2.572,0-5.144,0c-.091,0-.182-.015-.289-.024v-.424a1.609,1.609,0,0,1,.237-.037q2.632,0,5.264,0C2235.454,559.884,2235.506,559.894,2235.61,559.9Z" transform="translate(-2068.288 -542.066)"/><path d="M363.87,1006.108a1.2,1.2,0,0,1,.344-.372.346.346,0,0,1,.19-.046c.12-.008.242,0,.362,0H394.1c.173,0,.345,0,.512.006a.591.591,0,0,1,.041.453,1.673,1.673,0,0,1-.212.03q-15.249,0-30.5-.012C363.922,1006.165,363.9,1006.134,363.87,1006.108Z" transform="translate(-358.779 -950.475)"/><path d="M388.02,982.46c.405-.479.405-.48.928-.48h27.327c.159,0,.317.006.5.01.009.153.017.281.026.429a2.074,2.074,0,0,1-.241.049c-.107.008-.215,0-.322,0H388.552C388.4,982.47,388.239,982.465,388.02,982.46Z" transform="translate(-380.903 -928.757)"/><path d="M412.43,958.62a.95.95,0,0,1,.262-.268,1.223,1.223,0,0,1,.19-.147.359.359,0,0,1,.152-.041c.093-.007.188,0,.282,0h25.362c.145,0,.29.008.461.013.01.149.018.278.029.425a2,2,0,0,1-.24.05c-.107.008-.215,0-.322,0H412.922A1.588,1.588,0,0,1,412.43,958.62Z" transform="translate(-403.265 -906.935)"/></g><rect class="a" width="209.704" height="117.967"/></svg>