<svg xmlns="http://www.w3.org/2000/svg" width="19.208" height="19.3" viewBox="0 0 19.208 19.3"><defs><style>.a{fill:#fff;fill-rule:evenodd;}</style></defs><path class="a" d="M16.659,2.8A9.566,9.566,0,0,0,1.607,14.345L.25,19.3l5.07-1.33a9.554,9.554,0,0,0,4.57,1.164h0A9.568,9.568,0,0,0,16.659,2.8ZM9.894,17.519h0a7.939,7.939,0,0,1-4.046-1.108l-.29-.172-3.009.789.8-2.933-.189-.3a7.949,7.949,0,1,1,6.734,3.725Zm4.36-5.953c-.239-.12-1.414-.7-1.633-.777s-.378-.119-.538.12-.617.777-.757.937-.279.18-.518.06a6.527,6.527,0,0,1-1.922-1.186A7.208,7.208,0,0,1,7.558,9.063c-.139-.239,0-.356.1-.488a6.76,6.76,0,0,0,.6-.817.44.44,0,0,0-.02-.419c-.06-.12-.538-1.3-.737-1.774s-.391-.4-.538-.41-.3-.008-.458-.008a.878.878,0,0,0-.637.3,2.68,2.68,0,0,0-.836,1.994A4.649,4.649,0,0,0,6.01,9.911a10.652,10.652,0,0,0,4.082,3.608,13.678,13.678,0,0,0,1.362.5,3.276,3.276,0,0,0,1.505.095,2.462,2.462,0,0,0,1.613-1.136,2,2,0,0,0,.139-1.136c-.06-.1-.219-.159-.458-.279Zm0,0" transform="translate(-0.25)"/></svg>