<svg xmlns="http://www.w3.org/2000/svg" width="23.019" height="17.435" viewBox="0 0 23.019 17.435"><defs><style>.a{fill:#fff;}</style></defs><path class="a" d="M197.414,109.422l-5.085-2.782a.934.934,0,0,0-1.382.819v5.517a.932.932,0,0,0,1.376.823l5.086-2.735a.934.934,0,0,0,.006-1.642Zm-5.119,2.86v-4.124l3.8,2.08Zm0,0" transform="translate(-182.361 -101.734)"/><path class="a" d="M22.849,4.115V4.1a5.264,5.264,0,0,0-1.015-2.672A3.746,3.746,0,0,0,19.352.27L19.238.256l-.04,0C16.154.03,11.559,0,11.513,0H11.5c-.046,0-4.642.03-7.712.252l-.041,0L3.644.269a3.651,3.651,0,0,0-2.466,1.2A5.517,5.517,0,0,0,.171,4.091l0,.024C.162,4.192,0,6.027,0,7.87V9.592c0,1.843.162,3.678.169,3.755v.012A5.213,5.213,0,0,0,1.181,16a3.822,3.822,0,0,0,2.564,1.147c.094.011.174.02.229.03l.053.007c1.757.167,7.266.25,7.5.253h.014c.046,0,4.642-.03,7.685-.252l.04,0,.129-.015a3.567,3.567,0,0,0,2.445-1.17,5.516,5.516,0,0,0,1.006-2.623l0-.024c.007-.077.169-1.912.169-3.755V7.87c0-1.843-.163-3.678-.169-3.755Zm-1.18,5.478c0,1.705-.149,3.462-.163,3.623a4.283,4.283,0,0,1-.662,1.869,2.218,2.218,0,0,1-1.592.739l-.144.016c-2.943.213-7.366.246-7.569.247-.228,0-5.657-.086-7.36-.245C4.092,15.827,4,15.816,3.9,15.8a2.522,2.522,0,0,1-1.725-.721l-.012-.013a3.886,3.886,0,0,1-.649-1.85c-.011-.122-.164-1.9-.164-3.628V7.87c0-1.7.149-3.458.163-3.622a4.2,4.2,0,0,1,.662-1.869A2.327,2.327,0,0,1,3.8,1.609l.11-.013c2.986-.214,7.44-.246,7.6-.247s4.612.033,7.572.247l.119.014a2.415,2.415,0,0,1,1.652.748l.005.006a3.948,3.948,0,0,1,.649,1.877c.01.115.164,1.9.164,3.629Zm0,0" transform="translate(0.001 0)"/></svg>